<svg width="155" height="56" viewBox="0 0 155 56" fill="none" xmlns="http://www.w3.org/2000/svg">
<path fill-rule="evenodd" clip-rule="evenodd" d="M105.852 0.291676C103.955 0.801334 101.327 2.37076 97.3662 5.35681C89.4998 11.2883 87.3278 12.3444 82.6066 12.5349C77.834 12.7273 74.3852 11.6451 68.0878 7.97879C63.4665 5.28812 60.03 3.62478 57.6045 2.90445C56.5762 2.59905 56.573 2.59965 56.573 3.05164C56.573 4.30465 57.5679 6.67932 58.7496 8.24754C60.5169 10.5926 63.3739 12.1656 69.8902 14.3815C74.6533 16.0009 78.9122 17.9557 79.198 18.6532C79.6121 19.6643 79.836 23.3991 80.0048 32.1147C80.1029 37.1813 80.283 42.1827 80.4051 43.2291C80.7175 45.9047 81.3219 48.7798 81.9307 50.4852C82.5495 52.2183 83.9779 55.0443 84.2353 55.0443C84.654 55.0443 85.9865 52.5699 86.4163 50.9941C87.293 47.7797 87.2033 44.285 86.0135 35.3189C85.2187 29.3283 84.9646 25.4205 85.1993 22.7911C85.3827 20.7336 85.8754 18.1267 86.1669 17.6703C86.3318 17.4122 89.6721 15.7024 97.0252 12.1123C102.433 9.47212 105.811 7.55685 108.276 5.7343C110.362 4.19131 112.846 1.99828 112.846 1.69849C112.846 1.36486 111.597 0.687187 110.256 0.292878C108.928 -0.097225 107.3 -0.0976257 105.852 0.291676ZM23.8664 1.59936C14.5119 2.50013 4.89471 5.80439 1.43265 9.30711C0.161208 10.5936 0 11.0419 0 13.2904C0 15.0291 0.0686886 15.4394 0.520872 16.4037C1.58364 18.6694 3.52995 20.1577 7.0529 21.3985C9.67288 22.3215 12.3327 22.9255 18.5239 24.0041C26.2701 25.3532 29.7548 26.3413 32.3764 27.9313C33.5707 28.6559 35.5459 30.647 35.5459 31.1266C35.5459 31.5162 34.2658 32.3258 32.9167 32.79C30.9205 33.4769 29.149 33.6167 22.3905 33.6201C15.4329 33.6239 14.1893 33.745 12.1641 34.6161C11.6158 34.8521 10.8798 35.3415 10.5286 35.704L9.88996 36.3626L10.9247 37.2928C14.6575 40.6489 21.7735 41.2757 30.3391 39.0024C35.5533 37.6188 40.3841 35.3345 43.0539 32.9905L43.7396 32.3885L43.261 31.3061C41.9739 28.3961 39.4581 25.9718 35.831 24.1466C32.9603 22.702 29.3951 21.6745 19.3946 19.4093C13.2681 18.0217 9.16783 16.4733 6.4379 14.5168C5.1973 13.6275 4.16557 12.6532 4.32137 12.518C4.4982 12.365 13.174 9.36959 15.3458 8.71174C18.1032 7.87666 21.9417 7.07843 24.5739 6.79286C27.0599 6.52311 33.4165 6.52111 34.3838 6.78966C34.7911 6.9028 35.6472 7.35699 36.2862 7.79876C36.9254 8.24073 37.9139 8.92141 38.483 9.31151C39.7839 10.2033 40.6629 10.4147 41.6529 10.0743C42.0665 9.93211 42.4834 9.73726 42.5795 9.64114C42.8343 9.38641 42.2211 7.2104 41.6507 6.34448C40.8457 5.12251 39.568 4.0345 38.0673 3.29335C34.8433 1.70149 29.467 1.06007 23.8664 1.59936ZM138.479 14.0839C133.232 15.2089 129.499 18.0576 127.939 22.1264C127.297 23.8006 127.087 26.7726 127.456 28.9583C127.683 30.3062 127.755 30.4402 128.78 31.4094C129.949 32.5144 131.657 33.4106 133.572 33.9225C135.224 34.3638 139.182 34.5232 141.34 34.2353C146 33.6131 150.819 31.7903 153.076 29.7961C154.236 28.772 155.051 24.2854 154.524 21.8281C153.758 18.2595 150.804 15.4514 146.589 14.2879C144.934 13.8309 140.212 13.7122 138.479 14.0839ZM109.141 17.3277C107.995 17.5726 105.626 18.5194 104.741 19.0865C103.572 19.8349 101.778 21.7303 101.24 22.7851C99.9832 25.2477 99.888 28.6727 100.997 31.514C101.341 32.3951 101.947 33.6343 102.343 34.2675L103.064 35.419H105.96C114.407 35.419 119.354 33.5632 121.336 29.6515C121.962 28.416 121.977 27.9482 121.457 25.8887C120.322 21.3973 117.676 18.5278 113.72 17.4975C112.653 17.2193 110.091 17.1244 109.141 17.3277ZM146.322 18.8871C147.951 19.2325 148.683 19.5976 149.79 20.6183C150.625 21.3879 150.639 21.4219 150.475 22.2975C149.938 25.1738 147.405 27.3562 143.353 28.4342C140.235 29.2636 135.743 28.9677 133.413 27.7793C132.631 27.3802 132.63 27.3782 132.77 26.4428C133.21 23.4894 135.867 20.7973 139.637 19.4864C142.164 18.6077 144.16 18.4289 146.322 18.8871ZM114.147 23.1854C115.074 23.5977 116.579 25.1511 116.763 25.8865C116.933 26.5612 116.351 27.3528 115.006 28.2786C112.416 30.0607 108.252 30.6442 105.525 29.6073C105.021 29.4156 104.992 29.3381 105.078 28.4352C105.466 24.4028 110.427 21.5307 114.147 23.1854ZM55.5216 31.3247C55.2751 31.5804 55.3574 34.2311 55.6504 35.4761C56.0303 37.0913 56.3807 37.4216 57.714 37.4216C58.7099 37.4216 58.8655 37.3545 59.7357 36.5484C60.2541 36.0682 60.8783 35.5708 61.123 35.443C61.4893 35.2518 61.5468 35.0968 61.4485 34.5639C61.0656 32.4896 59.7138 31.4385 57.2156 31.2718C56.3665 31.2152 55.6043 31.239 55.5216 31.3247Z" fill="#FFF9F2"/>
</svg>
